<?xml version="1.0" standalone="no"?>
<!DOCTYPE svg PUBLIC "-//W3C//DTD SVG 20010904//EN"
 "http://www.w3.org/TR/2001/REC-SVG-20010904/DTD/svg10.dtd">
<svg version="1.0" xmlns="http://www.w3.org/2000/svg"
 width="1092.000000pt" height="1280.000000pt" viewBox="0 0 1092.000000 1280.000000"
 preserveAspectRatio="xMidYMid meet">
<metadata>
Created by potrace 1.15, written by Peter Selinger 2001-2017
</metadata>
<g transform="translate(0.000000,1280.000000) scale(0.100000,-0.100000)"
fill="#000000" stroke="none">
<path d="M4600 12780 c-132 -18 -156 -25 -277 -76 -131 -55 -133 -56 -198
-132 l-66 -77 6 -53 c5 -46 -1 -69 -49 -200 -48 -129 -56 -159 -61 -247 -10
-145 -27 -196 -105 -316 l-69 -104 57 -26 c91 -42 96 -51 83 -156 -6 -48 -13
-102 -16 -120 -3 -28 1 -35 31 -54 80 -49 81 -112 5 -274 l-47 -100 15 -47 15
-48 211 0 211 0 32 -33 c29 -30 32 -39 27 -73 -3 -21 -10 -151 -15 -289 l-9
-250 -56 -145 c-31 -80 -79 -188 -107 -241 -50 -95 -53 -98 -126 -139 -41 -24
-128 -78 -194 -121 -65 -44 -146 -90 -179 -104 l-61 -25 -138 131 c-133 126
-144 139 -293 363 -142 213 -179 283 -169 320 2 4 -2 13 -7 20 -14 17 -28 122
-36 266 -6 111 -11 141 -52 265 -36 113 -57 160 -110 242 -57 90 -77 113 -179
196 l-115 94 -123 5 c-101 5 -142 2 -232 -16 l-109 -22 -52 -94 -53 -95 1
-165 c0 -213 13 -282 71 -390 25 -47 76 -168 113 -270 l67 -185 95 -70 c52
-38 135 -106 184 -150 l90 -80 60 -135 c33 -74 96 -239 140 -367 l80 -232 171
-283 c107 -177 210 -334 276 -419 l106 -137 170 -71 c138 -57 199 -77 315
-100 l143 -30 102 36 c55 20 111 45 124 57 l23 21 -6 -125 c-4 -69 -17 -242
-29 -385 -17 -190 -21 -287 -15 -360 4 -55 7 -159 8 -232 l1 -131 -37 10 c-25
7 -93 6 -217 -1 -131 -9 -248 -9 -426 -2 -135 6 -273 11 -307 11 l-63 0 7 -30
c4 -22 2 -30 -8 -30 -8 0 -127 -55 -264 -121 l-250 -122 -315 -253 c-173 -139
-381 -313 -461 -386 -117 -106 -165 -143 -240 -182 -86 -45 -259 -170 -259
-186 0 -4 -6 -72 -14 -151 -8 -79 -18 -219 -21 -311 -6 -148 -5 -178 14 -265
13 -57 33 -239 50 -438 l30 -340 90 -435 c49 -239 122 -583 161 -765 67 -307
74 -351 100 -629 25 -258 27 -311 18 -387 l-11 -88 -46 -15 c-25 -8 -95 -29
-156 -46 -120 -35 -246 -103 -420 -229 -52 -37 -139 -87 -205 -116 l-115 -52
-270 -7 c-204 -5 -309 -12 -428 -30 -87 -13 -162 -27 -166 -32 -5 -5 -18 -45
-31 -90 l-23 -81 43 -61 43 -61 71 -12 c39 -7 82 -18 96 -24 14 -7 54 -15 90
-19 36 -4 79 -9 96 -12 25 -5 32 -2 36 14 5 19 16 20 669 17 442 -2 774 -9
993 -20 l330 -16 130 31 131 31 47 125 46 126 -52 126 -52 127 -115 88 c-62
48 -119 93 -126 100 -10 9 -8 40 8 144 l20 131 -50 165 -51 164 0 412 0 411
119 583 119 582 -8 150 c-5 83 -9 223 -9 312 l-1 161 28 6 c117 24 449 65 545
68 116 3 117 3 117 -19 0 -30 -13 -30 545 7 248 16 491 30 540 30 68 0 124 8
230 34 270 66 337 79 344 69 3 -5 96 -137 206 -293 l200 -284 338 -358 c204
-215 346 -358 356 -358 25 0 148 -110 493 -440 281 -269 290 -279 402 -439
l114 -163 143 0 c140 1 149 0 342 -49 173 -43 249 -70 600 -210 l402 -160 609
-332 c604 -329 611 -333 790 -393 l181 -61 68 -129 c64 -119 73 -146 127 -354
32 -124 83 -317 113 -430 36 -135 59 -245 67 -321 l13 -116 84 -42 c83 -41 85
-41 163 -35 43 4 82 9 87 13 5 3 19 63 31 132 17 99 22 166 22 310 0 213 -21
555 -50 809 -18 160 -82 485 -98 501 -4 4 -115 -6 -247 -21 l-240 -28 -113
112 c-168 164 -927 949 -1147 1184 l-189 204 -228 114 -227 114 -208 12 -208
12 -156 138 c-128 111 -160 145 -173 180 -9 24 -32 86 -51 138 -21 56 -62 215
-99 390 -55 256 -75 327 -150 540 -106 301 -100 288 -191 419 -53 77 -96 126
-145 166 l-70 57 6 262 6 261 -35 205 c-30 172 -45 234 -98 385 l-62 180 -82
95 c-45 52 -120 149 -166 216 -46 66 -126 174 -178 241 l-95 121 -38 193 c-20
107 -47 247 -59 312 l-21 117 21 378 c12 207 21 460 21 561 0 155 8 304 34
644 2 27 7 52 12 57 5 4 65 12 133 17 l125 8 122 -51 c99 -42 145 -69 241
-142 65 -50 159 -132 209 -184 124 -127 343 -438 408 -578 61 -132 199 -452
217 -504 11 -30 45 -67 140 -152 l126 -112 318 -51 c175 -28 322 -48 326 -44
10 11 179 434 179 449 0 6 -73 80 -161 165 l-162 154 -151 12 c-83 6 -165 12
-182 12 -29 1 -41 13 -128 130 -90 120 -102 142 -165 299 -53 132 -76 207
-104 336 -33 151 -42 180 -115 335 -77 163 -85 175 -199 308 -107 126 -128
145 -228 210 -85 54 -109 75 -107 90 2 16 -14 26 -100 57 -57 21 -184 72 -283
113 -133 56 -233 89 -383 128 -195 51 -210 54 -375 60 l-172 7 -120 45 c-66
25 -129 49 -141 53 -21 8 -21 10 -7 102 9 59 13 127 9 186 l-5 92 60 128 c48
101 67 156 92 268 l32 141 -9 214 -8 214 -92 169 -91 169 -148 97 -147 97 -78
7 c-204 16 -329 14 -472 -4z m394 -66 l128 -7 133 -86 132 -86 83 -150 83
-150 9 -205 c10 -203 10 -205 -17 -330 -22 -97 -42 -156 -93 -265 l-64 -140 6
-90 c4 -61 0 -126 -11 -202 l-16 -112 -64 -7 c-39 -4 -118 -27 -206 -61 -160
-61 -540 -173 -586 -173 -29 0 -31 2 -31 37 0 31 -8 45 -47 85 l-47 48 -203 0
c-117 0 -204 4 -208 10 -3 5 15 50 40 100 39 77 47 103 52 169 5 70 3 81 -18
114 -13 20 -34 42 -46 48 -27 14 -27 14 -8 144 l15 100 -48 46 c-26 25 -54 48
-62 51 -10 3 -2 22 34 74 61 86 96 202 96 315 0 67 6 94 56 229 44 120 55 163
53 202 -3 45 1 53 45 106 43 51 59 62 159 106 101 44 128 51 272 72 88 12 180
21 205 18 25 -2 103 -6 174 -10z m-2366 -1638 c140 -115 201 -207 265 -402 43
-132 46 -147 53 -289 4 -82 10 -161 14 -175 l7 -25 -226 0 c-155 0 -239 -4
-268 -13 -44 -13 -54 -26 -29 -35 43 -17 237 -29 378 -24 l158 5 10 -36 c5
-21 10 -40 10 -44 0 -3 73 -116 163 -250 l162 -244 158 -148 158 -148 77 28
c42 16 128 63 192 105 63 41 140 89 170 106 l55 32 299 -485 298 -485 -23 -26
c-13 -14 -106 -93 -206 -175 -169 -138 -183 -152 -183 -182 0 -51 -57 -98
-164 -137 l-89 -32 -131 27 c-101 20 -167 42 -289 93 l-159 67 -97 125 c-55
72 -169 245 -264 402 l-167 277 -76 218 c-41 121 -105 288 -142 373 l-66 153
-94 86 c-51 48 -135 117 -186 154 l-93 67 -58 163 c-32 90 -81 208 -109 263
-61 122 -75 192 -75 378 l-1 138 41 74 40 74 57 11 c31 6 62 13 67 15 6 2 66
4 135 4 l125 1 103 -84z m4497 -804 c66 -42 102 -76 194 -184 107 -125 118
-143 188 -292 66 -143 78 -176 110 -325 27 -128 51 -206 105 -341 67 -168 74
-181 179 -321 l109 -146 73 -6 c39 -4 119 -10 177 -13 58 -4 115 -12 126 -18
12 -6 79 -66 148 -133 l126 -122 -71 -178 c-39 -98 -72 -179 -73 -181 -5 -4
-556 87 -569 95 -7 4 -57 47 -113 96 l-101 89 -48 117 c-47 112 -146 339 -207
471 -16 35 -88 148 -161 250 -151 214 -296 370 -452 488 -55 41 -104 78 -108
82 -6 5 131 368 240 638 4 10 10 10 27 -1 11 -7 57 -37 101 -65z m-3850 -4462
c19 -480 34 -875 32 -876 -1 -1 -78 -7 -172 -14 -93 -6 -262 -25 -375 -43
l-205 -32 0 -375 0 -375 -112 -540 -113 -540 0 -435 0 -435 48 -157 49 -156
-23 -148 c-22 -139 -22 -148 -6 -160 9 -6 71 -53 136 -102 l119 -91 44 -105
43 -105 -34 -92 c-19 -50 -36 -92 -38 -94 -2 -2 -51 -15 -108 -28 l-105 -24
-265 14 c-174 9 -548 16 -1090 18 -703 3 -836 6 -898 19 -40 9 -75 16 -77 16
-2 0 -13 16 -25 35 -20 32 -20 38 -8 82 l14 48 114 17 c147 22 386 38 567 38
l143 0 117 52 c69 30 157 79 213 118 52 37 143 97 202 133 95 58 128 71 279
116 95 28 174 52 176 55 2 2 11 55 20 117 15 108 14 122 -12 408 -26 278 -32
317 -101 641 -41 189 -115 542 -165 785 -90 439 -91 441 -119 775 -17 195 -37
373 -49 425 -18 83 -19 106 -11 290 10 219 27 383 42 402 24 29 122 96 220
150 87 47 134 83 260 198 84 77 287 247 450 378 l297 238 243 119 c133 65 244
117 245 116 1 -1 18 -395 38 -876z m4175 -1675 c22 -105 118 -391 143 -427 7
-9 87 -81 178 -161 l166 -144 214 -13 214 -12 215 -109 215 -108 169 -183
c203 -219 824 -866 1092 -1137 l192 -195 234 26 c128 14 234 25 235 24 1 0 15
-62 32 -136 36 -157 64 -398 86 -733 21 -327 20 -498 -4 -631 -11 -60 -21
-110 -23 -112 -2 -1 -26 -4 -53 -5 -37 -2 -63 5 -102 25 -29 14 -53 32 -53 39
0 74 -37 248 -109 522 -49 182 -99 373 -111 427 -19 75 -41 129 -104 249 l-81
152 -195 66 -195 66 -605 331 -605 331 -405 161 c-354 141 -430 168 -604 212
-190 48 -205 50 -335 50 l-136 0 -100 147 c-97 142 -109 154 -415 447 -173
165 -344 326 -380 358 -64 56 -65 56 -40 67 728 322 1236 538 1241 528 4 -7
17 -61 29 -122z"/>
<path d="M7586 8897 c3 -10 9 -15 12 -12 3 3 0 11 -7 18 -10 9 -11 8 -5 -6z"/>
</g>
</svg>
